<svg id="mainsvg" xmlns="http://www.w3.org/2000/svg" xmlns:xlink="http://www.w3.org/1999/xlink" version="1.1" x="0px" y="0px" enable-background="new 0 0 200 162.5" xml:space="preserve" viewBox="0 0 111 23"><path fill="#000" transform="translate(0, 22.400000000000002)" d="M0 0L0-0.64L2.56-0.64L2.56-21.76L0-21.76L0-22.40L9.60-22.40L9.60-21.76L7.04-21.76L7.04-0.64L16.64-0.64L16.64-6.40L17.28-6.40L17.28 0L0 0ZM18.88-8L18.88-8Q18.88-9.73 19.54-11.25Q20.19-12.77 21.31-13.89Q22.43-15.01 23.95-15.66Q25.47-16.32 27.20-16.32L27.20-16.32Q28.93-16.32 30.45-15.66Q31.97-15.01 33.09-13.89Q34.21-12.77 34.86-11.25Q35.52-9.73 35.52-8L35.52-8Q35.52-6.27 34.86-4.75Q34.21-3.23 33.09-2.11Q31.97-0.99 30.45-0.34Q28.93 0.32 27.20 0.32L27.20 0.32Q25.47 0.32 23.95-0.34Q22.43-0.99 21.31-2.11Q20.19-3.23 19.54-4.75Q18.88-6.27 18.88-8ZM27.20-15.68L27.20-15.68Q26.14-15.68 25.18-15.41Q24.22-15.14 23.39-14.66L23.39-14.66L23.39-1.34Q25.09-0.32 27.20-0.32L27.20-0.32Q28.26-0.32 29.23-0.59Q30.21-0.86 31.07-1.38L31.07-1.38L31.07-14.62Q30.21-15.14 29.23-15.41Q28.26-15.68 27.20-15.68ZM37.12 0L37.12-0.64L39.04-0.64L39.04-15.36L37.12-15.36L37.12-16L42.88-16L42.88-15.46Q44.35-16 46.08-16L46.08-16Q47.52-16 48.80-15.62Q50.08-15.23 51.04-14.59Q52.00-13.95 52.56-13.07Q53.12-12.19 53.12-11.20L53.12-11.20L53.12-0.64L55.04-0.64L55.04 0L47.36 0L47.36-0.64L49.28-0.64L49.28-14.78Q48.54-15.04 47.74-15.20Q46.94-15.36 46.08-15.36L46.08-15.36Q45.18-15.36 44.38-15.20Q43.58-15.04 42.88-14.78L42.88-14.78L42.88-0.64L44.80-0.64L44.80 0L37.12 0ZM72.64 0L64.64 0Q62.98 0 61.52-0.62Q60.06-1.25 58.98-2.34Q57.89-3.42 57.26-4.88Q56.64-6.34 56.64-8L56.64-8Q56.64-9.66 57.26-11.12Q57.89-12.58 58.98-13.66Q60.06-14.75 61.52-15.38Q62.98-16 64.64-16L64.64-16L66.88-16L66.88-21.76L64.96-21.76L64.96-22.40L70.72-22.40L70.72-0.64L72.64-0.64L72.64 0ZM61.12-14.46L61.12-1.54Q62.72-0.64 64.64-0.64L64.64-0.64L66.88-0.64L66.88-15.36L64.64-15.36Q62.72-15.36 61.12-14.46L61.12-14.46ZM74.24-8L74.24-8Q74.24-9.73 74.90-11.25Q75.55-12.77 76.67-13.89Q77.79-15.01 79.31-15.66Q80.83-16.32 82.56-16.32L82.56-16.32Q84.29-16.32 85.81-15.66Q87.33-15.01 88.45-13.89Q89.57-12.77 90.22-11.25Q90.88-9.73 90.88-8L90.88-8Q90.88-6.27 90.22-4.75Q89.57-3.23 88.45-2.11Q87.33-0.99 85.81-0.34Q84.29 0.32 82.56 0.32L82.56 0.32Q80.83 0.32 79.31-0.34Q77.79-0.99 76.67-2.11Q75.55-3.23 74.90-4.75Q74.24-6.27 74.24-8ZM82.56-15.68L82.56-15.68Q81.50-15.68 80.54-15.41Q79.58-15.14 78.75-14.66L78.75-14.66L78.75-1.34Q80.45-0.32 82.56-0.32L82.56-0.32Q83.62-0.32 84.59-0.59Q85.57-0.86 86.43-1.38L86.43-1.38L86.43-14.62Q85.57-15.14 84.59-15.41Q83.62-15.68 82.56-15.68ZM92.48 0L92.48-0.64L94.40-0.64L94.40-15.36L92.48-15.36L92.48-16L98.24-16L98.24-15.46Q99.71-16 101.44-16L101.44-16Q102.88-16 104.16-15.62Q105.44-15.23 106.40-14.59Q107.36-13.95 107.92-13.07Q108.48-12.19 108.48-11.20L108.48-11.20L108.48-0.64L110.40-0.64L110.40 0L102.72 0L102.72-0.64L104.64-0.64L104.64-14.78Q103.90-15.04 103.10-15.20Q102.30-15.36 101.44-15.36L101.44-15.36Q100.54-15.36 99.74-15.20Q98.94-15.04 98.24-14.78L98.24-14.78L98.24-0.64L100.16-0.64L100.16 0L92.48 0Z"/></svg>